# xmcd
# 
# Track frame offsets:
#     150
#     18699
#     37719
#     53567
#     74402
#     89616
#     105790
#     125162
#     143952
#     158663
#     175811
#     190313
#     210917
# 
# Disc length: 3034
# 
# Revision: 8
# Processed by: cddbd v1.5.2PL0 Copyright (c) Steve Scherf et al.
# Submitted via: fre:ac v1.0.31
# 
DISCID=aa0bd80d
DTITLE=Various Artist - Cry Pretty
DYEAR=2018
DGENRE=Folk/Country
TTITLE0=Carrie Underwood - Cry Pretty
TTITLE1=Carrie Underwood - Ghosts on the Stereo
TTITLE2=Carrie Underwood - Low
TTITLE3=Carrie Underwood - Backsliding
TTITLE4=Carrie Underwood - Southbound
TTITLE5=Carrie Underwood - That Song That We Used to Make Love to
TTITLE6=Carrie Underwood - Drinking Alone
TTITLE7=Carrie Underwood - The Bullet
TTITLE8=Carrie Underwood - Spinning Bottles
TTITLE9=Carrie Underwood - Love Wins
TTITLE10=Carrie Underwood - End Up with You
TTITLE11=Carrie Underwood - Kingdom
TTITLE12=Carrie Underwood featuring Ludacris - The Champion
EXTD=
EXTT0=
EXTT1=
EXTT2=
EXTT3=
EXTT4=
EXTT5=
EXTT6=
EXTT7=
EXTT8=
EXTT9=
EXTT10=
EXTT11=
EXTT12=
PLAYORDER=
